<svg xmlns="http://www.w3.org/2000/svg"><symbol id="arrow-next" viewBox="0 0 512 512"><path d="M383 266.5c-2.6 0-5.3-1-7.3-3L121.7 18c-4.2-4-4.3-10.7-.3-15 4-4 10.7-4.2 15-.2l254 245.5c4 4 4.2 10.7.2 15-2 2.2-4.8 3.2-7.6 3.2z"/><path d="M129 512c-2.8 0-5.5-1-7.6-3.2-4-4.2-4-11 .3-15l254-245.4c4.2-4 11-4 15 .3 4 4.2 3.8 11-.4 15L136.3 509c-2 2-4.7 3-7.3 3z"/></symbol><symbol id="arrow-next_vertical" viewBox="0 0 512 512"><path fill="none" stroke="#000" stroke-width="22" stroke-linecap="round" stroke-linejoin="round" stroke-miterlimit="10" d="M417.8 175.1L256 336.9 94.2 175.1"/></symbol><symbol id="arrow-prev" viewBox="0 0 512 512"><path d="M129 266.5c2.6 0 5.3-1 7.3-3L390.3 18c4.2-4 4.3-10.7.3-15-4-4-10.7-4.2-15-.2l-254 245.5c-4 4-4.2 10.7-.2 15 2 2.2 4.8 3.2 7.6 3.2z"/><path d="M383 512c2.8 0 5.5-1 7.6-3.2 4-4.2 4-11-.3-15l-254-245.4c-4.2-4-11-4-15 .3-4 4.2-3.8 11 .4 15l254 245.4c2 2 4.7 3 7.3 3z"/></symbol><symbol id="arrow-prev_vertical" viewBox="0 0 512 512"><path fill="none" stroke="#000" stroke-width="22" stroke-linecap="round" stroke-linejoin="round" stroke-miterlimit="10" d="M94.2 336.9L256 175.1l161.8 161.8"/></symbol><symbol id="cart" viewBox="0 0 512 512"><path d="M441 416c0 13.8-11.2 25-25 25s-25-11.2-25-25 11.2-25 25-25 25 11.2 25 25zM153 416c0 13.8-11.2 25-25 25s-25-11.2-25-25 11.2-25 25-25 25 11.2 25 25zM127.9 96l-11.1-32H64v17h41.7l57.5 213.3c-32.4 11.3-59.9 37.9-65.3 73.1C96 379.1 96 384 96 384h352v-16.7H115.3c4.7-31.6 38.8-58.1 74.1-62.5s243.3-34.2 243.3-34.2L448 96H127.9zM416 256l-235 33.3-2.7.6-44.7-177.3h297.7L416 256z"/></symbol><symbol id="ok" viewBox="0 0 30 30"><path d="M22 15c-1 0-3 2-7 2s-6-2-7-2-2 1-2 2 .6 1.5 1 1.7c1.2.7 5 2.3 5 2.3l-4.3 5.4S7 27.4 7 28c0 1 1 2 2 2s1.5-.7 1.5-.7L15 24l4.5 5.3s.5.7 1.5.7 2-1 2-2c0-.6-.8-1.6-.8-1.6L18 21s3.8-1.6 5-2.3c.4-.2 1-.7 1-1.7s-1-2-2-2zM15 0c-4 0-7 3-7 7s3 7 7 7 7-3 7-7-3-7-7-7zm0 10.5c-2 0-3.5-1.6-3.5-3.5 0-2 1.6-3.5 3.5-3.5 2 0 3.5 1.6 3.5 3.5 0 2-1.6 3.5-3.5 3.5z"/></symbol><symbol id="search" viewBox="0 0 512 512"><g fill="#6A6E7C"><path d="M202.7 405.5c-54.2 0-105-21-143.4-59.4-79-79-79-207.6 0-286.7C97.7 21 148.6 0 202.7 0 257 0 307.7 21 346 59.3c38.4 38.3 59.5 89.2 59.5 143.4s-21 105-59.4 143.4c-38.2 38.4-89 59.5-143.3 59.5zm0-384.4c-48.5 0-94.2 19-128.5 53.3-70.8 70.8-70.8 186 0 257 34.3 34.3 80 53.2 128.5 53.2s94.2-19 128.5-53.2c34.3-34.3 53.2-80 53.2-128.5s-19-94.2-53.2-128.5C297 40 251.2 21 202.7 21z"/><path d="M501.5 512c-2.7 0-5.4-1-7.5-3L331.2 346c-4-4-4-10.7 0-14.8 4-4 10.8-4 15 0L509 494c4 4 4 10.8 0 15-2 2-4.8 3-7.5 3z"/></g></symbol><symbol id="vk" viewBox="0 0 30 30"><path fill-rule="evenodd" d="M16 24c1 0 1-1.4 1-2 0-1 1-2 2-2s2.7 1.7 4 3c1 1 1 1 2 1h3s2 0 2-2c0-.6-.7-1.7-3-4-2-2-3-1 0-5 1.8-2.5 3.2-4.7 3-5.3-.3-.6-5.4-1.6-6-.7-2 3-2.4 3.7-3 5-1 2-1 3-2 3s-1-2-1-3c0-3.3.5-5.6-1-6h-3c-1.6 0-3 1-3 1s-1.2 1-1 1c.3 0 2-.4 2 1v2s0 4-1 4-3-4-5-7c-.8-1.2-1-1-2-1H1c-1 0-1 .7-1 1 2 5 3.4 8 7.2 12 3.5 3.7 6 4 7.8 4h1z"/></symbol></svg>