<svg xmlns="http://www.w3.org/2000/svg" viewBox="0 0 512 512"><g fill="#6A6E7C"><path d="M202.7 405.5c-54.2 0-105-21-143.4-59.4-79-79-79-207.6 0-286.7C97.7 21 148.6 0 202.7 0 257 0 307.7 21 346 59.3c38.4 38.3 59.5 89.2 59.5 143.4s-21 105-59.4 143.4c-38.2 38.4-89 59.5-143.3 59.5zm0-384.4c-48.5 0-94.2 19-128.5 53.3-70.8 70.8-70.8 186 0 257 34.3 34.3 80 53.2 128.5 53.2s94.2-19 128.5-53.2c34.3-34.3 53.2-80 53.2-128.5s-19-94.2-53.2-128.5C297 40 251.2 21 202.7 21z"/><path d="M501.5 512c-2.7 0-5.4-1-7.5-3L331.2 346c-4-4-4-10.7 0-14.8 4-4 10.8-4 15 0L509 494c4 4 4 10.8 0 15-2 2-4.8 3-7.5 3z"/></g></svg>